<svg xmlns="http://www.w3.org/2000/svg" viewBox="0 0 2256 602" width="640" height="171">
	<defs>
		<clipPath clipPathUnits="userSpaceOnUse" id="cp1">
			<path d="M-372 -298L2628 -298L2628 902L-372 902Z" />
		</clipPath>
	</defs>
	<style>
		tspan { white-space:pre }
		.shp0 { fill: #021f59 } 
		.shp1 { fill: #00a000 } 
	</style>
	<g id="Page 1" clip-path="url(#cp1)">
		<path id="Path 2" fill-rule="evenodd" class="shp0" d="M707.44 142.76L773.93 142.76C780.1 142.76 783.9 144.67 787.7 149.89L886.97 290L988.13 149.89C991.45 145.14 996.2 142.76 1001.9 142.76L1064.12 142.76L1064.12 479.5L1001.9 479.5L1001.9 234.9L885.07 389.74L769.65 234.43L769.65 479.5L707.44 479.5L707.44 142.76ZM1098.79 360.76C1098.79 284.77 1146.76 234.43 1218.95 234.43C1245.55 234.43 1280.69 246.3 1298.27 274.32L1301.59 250.1C1302.54 243.93 1306.34 241.55 1312.04 241.55L1356.21 241.55L1356.21 479.5L1303.02 479.5L1298.27 444.83C1284.5 472.85 1243.65 486.63 1217.53 486.63C1146.28 486.63 1098.79 436.28 1098.79 360.76ZM1296.37 360.76C1296.37 317.54 1268.82 288.57 1227.98 288.57C1186.18 288.57 1158.63 317.54 1158.63 360.76C1158.63 403.98 1186.18 432.48 1227.98 432.48C1268.82 432.48 1296.37 403.98 1296.37 360.76ZM1400.86 241.55L1446.45 241.55C1452.15 241.55 1455.95 243.93 1456.9 250.1L1460.22 275.27C1473.52 253.43 1494.9 238.7 1528.14 238.7C1532.42 238.7 1535.27 239.18 1539.54 239.65L1539.54 297.6C1533.84 296.17 1527.19 295.7 1518.64 295.7C1480.17 295.7 1459.75 319.44 1459.75 365.51L1459.75 479.5L1400.86 479.5L1400.86 241.55ZM1571.84 229.68C1571.84 173.64 1607.93 136.59 1662.08 136.59C1681.55 136.59 1702.45 141.81 1717.64 152.26C1722.39 155.59 1723.82 160.34 1720.97 165.56L1702.45 202.13C1691.05 194.06 1680.12 189.78 1666.83 189.78C1644.03 189.78 1630.73 204.98 1630.73 231.1L1630.73 241.55L1704.35 241.55L1704.35 296.65L1630.73 296.65L1630.73 479.5L1571.84 479.5L1571.84 229.68ZM1735.69 241.55L1781.29 241.55C1786.99 241.55 1790.79 243.93 1791.74 250.1L1795.06 275.27C1808.36 253.43 1829.73 238.7 1862.98 238.7C1867.25 238.7 1870.1 239.18 1874.38 239.65L1874.38 297.6C1868.68 296.17 1862.03 295.7 1853.48 295.7C1815.01 295.7 1794.59 319.44 1794.59 365.51L1794.59 479.5L1735.69 479.5L1735.69 241.55ZM1905.25 241.55L1963.67 241.55L1963.67 479.5L1905.25 479.5L1905.25 241.55ZM2006.89 517.97C2005.94 511.8 2008.79 507.52 2015.44 507.52L2067.2 507.52C2071.01 537.45 2095.7 549.32 2130.85 549.32C2163.62 549.32 2197.81 530.79 2197.81 478.08L2197.81 441.98C2184.04 470 2143.2 483.78 2117.07 483.78C2045.83 483.78 1998.34 433.43 1998.34 359.34C1998.34 284.77 2046.31 234.43 2118.5 234.43C2145.1 234.43 2180.24 246.3 2197.81 274.32L2201.14 250.1C2202.09 243.93 2205.89 241.55 2211.59 241.55L2255.76 241.55L2255.76 479.5C2255.76 571.17 2191.17 602.04 2130.85 602.04C2061.03 602.04 2015.44 574.02 2006.89 517.97ZM1900.02 175.54C1900.02 154.64 1913.8 140.87 1934.69 140.87C1955.59 140.87 1969.37 154.64 1969.37 175.54C1969.37 196.43 1955.59 210.21 1934.69 210.21C1913.8 210.21 1900.02 196.43 1900.02 175.54ZM2195.92 359.34C2195.92 317.54 2168.37 288.57 2127.52 288.57C2085.73 288.57 2058.18 317.54 2058.18 359.34C2058.18 401.61 2085.73 430.11 2127.52 430.11C2168.37 430.11 2195.92 401.61 2195.92 359.34ZM44.89 330.37C44.89 384.04 61.51 434.86 95.23 479.5L77.66 479.5C70.06 479.5 64.83 477.13 60.08 470.95C17.81 415.86 0.24 358.39 0.24 292.85C0.24 132.32 131.33 0.76 292.33 0.76C314.18 0.76 332.7 3.61 344.58 6.46C352.18 8.36 355.98 12.63 357.88 20.23C362.15 38.28 366.42 68.2 367.85 95.75C341.73 87.2 318.46 83.4 292.81 83.4C155.55 83.4 44.89 195.96 44.89 330.37ZM583.95 292.85C583.95 358.39 566.38 415.86 524.11 470.95C519.36 477.13 514.13 479.5 506.53 479.5L488.96 479.5C522.68 434.86 539.3 384.04 539.3 330.37C539.3 257.33 508.14 192.46 457.94 147.55C456.3 110.72 451.46 75.47 443.89 43.24C528.26 94.64 584.39 187.28 583.95 292.85Z" />
		<path id="Path 3" class="shp1" d="M457.94 147.54C456.3 110.72 451.46 75.47 443.89 43.24C443.87 43.17 443.86 43.1 443.84 43.03C441.31 41.58 438.84 40.19 436.4 38.84C431.68 36.15 426.88 33.58 421.99 31.15C422 31.2 422.02 31.24 422.03 31.28C408.4 24.5 395.23 19.06 380.2 14.05C389.7 48.73 395.4 86.72 395.4 130.42C394.92 260.08 343.63 365.04 280.46 364.56C220.62 364.56 171.7 270.53 166.95 147.04C154.6 155.59 143.68 163.66 133.23 175.54C128.95 180.29 126.1 185.99 126.1 193.58C126.1 342.72 197.82 493.75 291.86 494.22C383.52 494.7 458.09 351.74 458.56 175.54C458.56 166.12 458.35 156.78 457.94 147.54Z" />
	</g>
</svg>